<?xml version="1.0" encoding="UTF-8" standalone="no"?>
<!-- Created with Inkscape (http://www.inkscape.org/) -->

<svg
   width="167.46201mm"
   height="32.400002mm"
   viewBox="0 0 167.46201 32.400002"
   version="1.1"
   id="svg1"
   xml:space="preserve"
   inkscape:version="1.4.2 (2aeb623e1d, 2025-05-12)"
   sodipodi:docname="logo.svg"
   inkscape:export-filename="../2506de54/logo.pdf"
   inkscape:export-xdpi="96"
   inkscape:export-ydpi="96"
   xmlns:inkscape="http://www.inkscape.org/namespaces/inkscape"
   xmlns:sodipodi="http://sodipodi.sourceforge.net/DTD/sodipodi-0.dtd"
   xmlns="http://www.w3.org/2000/svg"
   xmlns:svg="http://www.w3.org/2000/svg"><sodipodi:namedview
     id="namedview1"
     pagecolor="#ffffff"
     bordercolor="#000000"
     borderopacity="0.25"
     inkscape:showpageshadow="2"
     inkscape:pageopacity="0.0"
     inkscape:pagecheckerboard="0"
     inkscape:deskcolor="#d1d1d1"
     inkscape:document-units="mm"
     inkscape:zoom="2"
     inkscape:cx="259.5"
     inkscape:cy="84.75"
     inkscape:window-width="2494"
     inkscape:window-height="1531"
     inkscape:window-x="0"
     inkscape:window-y="0"
     inkscape:window-maximized="1"
     inkscape:current-layer="layer1" /><defs
     id="defs1" /><g
     inkscape:label="Layer 1"
     inkscape:groupmode="layer"
     id="layer1"><g
       id="g43"><path
         style="fill:#000000;stroke-width:4.04281"
         d="m 34.292662,25.750574 -1.813293,-0.05328 -3.604282,-3.702405 -3.604282,-3.702405 H 21.97841 18.686011 v 1.438343 c 0,0.833692 -0.04241,1.438346 -0.100868,1.438346 -0.05547,0 -0.775302,-0.582128 -1.599635,-1.293614 l -1.49879,-1.29361 0.0283,-3.367688 0.0283,-3.367689 1.571525,-0.02951 1.571525,-0.02951 v 1.70755 1.707553 h 5.148048 c 5.824209,0 5.864192,-0.0044 6.725905,-0.763044 0.989393,-0.870902 1.392849,-1.890781 1.316981,-3.329164 C 31.798712,9.620307 31.04243,8.4103108 29.81359,7.8086074 28.86864,7.3459119 27.877699,7.2989466 20.047937,7.3457664 13.17464,7.3868814 12.962174,7.3942804 12.083231,7.6236691 10.219213,8.1101807 8.6349007,9.165128 7.2772041,10.82386 5.2909718,13.250487 4.4678276,17.00481 5.2562401,20.041364 5.3766754,20.505196 5.4585422,20.90135 5.4381665,20.92171 5.3850845,20.97479 4.7703429,19.61767 4.5268526,18.909951 4.0833918,17.620998 3.9554935,16.632422 4.0128812,14.937171 4.0751,13.099738 4.3377613,11.952894 5.0392332,10.455971 6.6115343,7.1007712 9.1896378,5.111329 12.760477,4.4977316 14.108762,4.2660382 28.163278,4.2561333 29.364776,4.4860075 c 2.20471,0.4218307 3.922027,1.7009675 4.875398,3.6314292 0.605831,1.2267383 0.778265,2.0797873 0.721472,3.5692263 -0.07006,1.837206 -0.606155,3.214604 -1.739367,4.46893 -0.565859,0.626336 -1.759422,1.381626 -2.69566,1.705815 -0.447131,0.154839 -0.836934,0.307859 -0.866237,0.340081 -0.02911,0.03234 1.552205,1.717919 3.514455,3.74601 1.96225,2.028096 3.58334,3.734291 3.602426,3.791545 0.019,0.05725 -0.124074,0.09525 -0.318129,0.08441 -0.194054,-0.01092 -1.168816,-0.04366 -2.166129,-0.07297 z"
         id="path31" /><path
         style="fill:#000000;stroke-width:4.04281"
         d="m 17.30094,30.941755 c 0,-0.259103 -0.03032,-0.830959 -0.0676,-1.270792 l -0.0676,-0.799696 -1.131021,-0.06853 C 13.880962,28.672239 12.527802,28.200977 11.039866,27.063226 8.2848692,24.956615 6.8379397,22.150355 6.6800073,18.607455 6.5731155,16.209516 6.9592442,14.48191 7.9852688,12.767524 c 0.4945043,-0.826265 1.3740821,-1.91957 1.4682755,-1.825037 0.0283,0.0283 -0.1607421,0.33244 -0.4201934,0.67555 -0.6174502,0.816457 -1.1525726,1.959117 -1.3642864,2.913183 -0.1949443,0.878563 -0.2238908,2.672855 -0.058217,3.608531 0.5006494,2.827266 2.2629464,5.220876 4.7746215,6.485054 1.044367,0.52565 2.142282,0.79286 3.599739,0.876101 l 1.202153,0.06865 0.03032,-1.240698 0.03032,-1.240693 2.077608,1.50065 c 1.142684,0.82536 2.376266,1.700082 2.741291,1.943831 0.365025,0.243741 0.662621,0.467155 0.661319,0.496453 -0.0019,0.04192 -2.493973,2.057204 -5.115003,4.136304 l -0.311943,0.24746 z"
         id="path29" /><path
         style="fill:#2093f2;fill-opacity:1;stroke-width:4.04281"
         d="m 15.839728,28.770075 c -2.155465,-0.09852 -3.329654,-0.51904 -4.864862,-1.704064 -2.7453671,-2.119144 -4.1572738,-4.777974 -4.3152061,-8.320874 -0.1068919,-2.397939 0.1480072,-4.166398 1.213336,-5.856644 1.0000859,-1.586725 1.5440782,-1.967522 1.5440782,-1.967522 -0.2570418,0.383461 -0.3419408,0.372424 -0.5962779,0.780428 -0.4063145,0.651774 -1.163848,1.670586 -1.5180951,3.269881 -0.1946209,0.878636 -0.389363,1.804217 -0.2000383,3.685348 0.2874842,2.856823 1.6408389,6.009272 4.1235322,7.926211 1.30778,1.00976 2.449142,1.802826 4.613533,2.187236 z"
         id="path41"
         sodipodi:nodetypes="cssscssssc" /><path
         style="fill:#000000;stroke-width:4.04281"
         d="m 97.31549,23.475831 v -2.274744 l -0.975247,-0.06921 c -0.5364,-0.038 -1.47134,-0.06921 -2.077599,-0.06921 -0.6063,0 -1.102353,-0.04099 -1.102353,-0.09112 0,-0.1284 1.203504,-0.226842 2.783474,-0.227732 l 1.345124,-7.56e-4 0.06832,-0.340849 c 0.03638,-0.187465 0.06549,-3.178942 0.06266,-6.647721 l -0.004,-6.3068631 -1.833738,-0.076207 c -1.008559,-0.041924 -2.996409,-0.058985 -4.417456,-0.038002 l -2.583719,0.038407 4e-5,-1.5182528 V 4.3353077 h 10.337706 10.337668 l -0.0283,1.5182528 -0.0283,1.5182528 -1.53036,-0.039215 c -0.84172,-0.021831 -2.79544,-0.00404 -4.34166,0.038811 l -2.81133,0.078067 v 6.6094967 6.609491 l 2.58372,-0.07192 c 1.42101,-0.03962 4.42955,-0.141579 6.68564,-0.226721 2.25605,-0.08514 4.64187,-0.173477 5.30174,-0.196278 l 1.19986,-0.04148 0.36305,0.492074 c 0.19971,0.270626 0.53478,0.6573 0.74456,0.859243 0.67992,0.654474 1.76194,0.637276 -9.99403,0.158842 -3.50903,-0.142792 -6.4936,-0.25963 -6.63234,-0.25963 h -0.25228 v 2.184152 2.184152 h -1.598163 -1.598163 z"
         id="path35" /><path
         style="fill:#000000;stroke-width:4.04281"
         d="M 66.524282,15.042898 V 4.3352269 h 6.77114 c 7.513116,0 7.609295,0.00728 9.050637,0.6973037 3.015814,1.443481 4.588346,5.0993494 3.710086,8.6252974 -0.353746,1.42059 -0.999787,2.518537 -2.058113,3.498368 -0.81216,0.751902 -1.503602,1.158265 -2.610846,1.534416 l -0.852346,0.289546 -5.407136,0.03517 -5.407096,0.03517 v 3.349916 3.34992 h -1.598163 -1.598163 z m 14.296951,0.607437 c 1.673399,-0.676253 2.66979,-2.661855 2.3553,-4.693593 C 82.866449,8.952475 81.680208,7.7388114 79.735738,7.436005 79.346416,7.3753629 77.002718,7.3283854 74.381927,7.3286684 l -4.661319,5.094e-4 v 4.3143692 4.314368 l 5.247284,-0.03153 c 5.192099,-0.03113 5.253671,-0.03396 5.853341,-0.276246 z"
         id="path34" /><path
         style="fill:#000000;stroke-width:4.04281"
         d="M 42.475061,18.265854 C 44.5178,14.149264 46.936778,9.330809 47.850566,7.5581827 l 1.661437,-3.2229558 h 1.621001 c 1.168271,0 1.651108,0.037194 1.728806,0.1331701 0.225832,0.2789538 10.785755,21.055121 10.785755,21.220439 0,0.03396 -0.779696,0.06173 -1.732668,0.06173 H 60.18223 l -0.984848,-1.973117 -0.984849,-1.973118 -4.820464,0.0065 c -2.651254,0.0035 -4.814792,-0.02224 -4.807862,-0.05725 0.0069,-0.03477 0.294599,-0.730783 0.639265,-1.546318 l 0.62666,-1.482798 3.391654,-0.0028 c 2.161411,-0.0018 3.378766,-0.04059 3.356134,-0.106972 -0.119465,-0.350391 -5.374373,-10.7633251 -5.431737,-10.7633251 -0.03881,0 -1.853296,3.5838781 -4.032318,7.9641641 -2.179021,4.380291 -4.185294,8.407439 -4.458382,8.949212 l -0.496517,0.985046 -1.708989,4.85e-4 -1.708992,4.9e-4 z"
         id="path33" /><path
         style="fill:#000000;stroke-width:4.04281"
         d="m 155.67001,22.048169 -3.61642,-3.755677 h -3.44989 -3.44993 v 3.560511 c 0,1.95828 -0.0283,3.636349 -0.0647,3.729038 -0.055,0.142873 -0.29795,0.168545 -1.59816,0.168545 h -1.53348 l -0.008,-2.47715 c -0.004,-1.362431 -0.0162,-4.49083 -0.0243,-6.951995 l -0.0162,-4.474848 h 1.58583 1.58583 l -0.0202,1.681732 -0.0202,1.681727 5.52041,-0.03032 c 5.50235,-0.03032 5.52216,-0.03113 6.05314,-0.275113 1.22392,-0.562484 1.97439,-1.762822 2.05658,-3.289391 0.12168,-2.258516 -1.12948,-3.8550089 -3.28184,-4.1880151 -0.40614,-0.062825 -3.32517,-0.1074579 -7.05854,-0.107943 l -6.36601,-8.045e-4 V 5.8268456 4.3352309 h 6.87771 c 7.7265,0 7.69654,-0.00247 9.30622,0.7661609 3.78646,1.8079969 4.9049,7.3476082 2.15632,10.6800062 -0.88877,1.077551 -1.99743,1.793694 -3.33544,2.154591 -0.37113,0.1001 -0.6931,0.195753 -0.7157,0.212652 -0.0243,0.01698 1.58357,1.690658 3.56923,3.719542 1.98567,2.028888 3.62349,3.744414 3.63958,3.812285 0.0202,0.09032 -0.53336,0.123386 -2.06979,0.123386 h -2.09919 z"
         id="path32" /><path
         style="fill:#000000;stroke-width:4.04281"
         d="m 123.20568,27.937576 c -0.49807,-0.08324 -1.14533,-0.227772 -1.43831,-0.321201 -0.34849,-0.111137 -1.61963,-0.241275 -3.6758,-0.376426 -3.45588,-0.227125 -7.44006,-0.487975 -9.13614,-0.598126 -0.60064,-0.03881 -1.09205,-0.104911 -1.09205,-0.146511 0,-0.04156 0.6832,-0.109479 1.51824,-0.150878 0.83504,-0.04144 2.95659,-0.167574 4.71456,-0.280369 1.75798,-0.112794 3.33932,-0.205496 3.51405,-0.206021 l 0.31777,-9.42e-4 -0.42426,-0.280369 c -0.23327,-0.154193 -0.66847,-0.516736 -0.96696,-0.805615 l -0.5427,-0.525237 -3.07981,-0.198664 c -1.6939,-0.109277 -4.01472,-0.231572 -5.15742,-0.271798 -2.78303,-0.09792 -3.25959,-0.206385 -1.33178,-0.303089 0.82037,-0.04116 2.30667,-0.12177 3.30286,-0.179178 0.99618,-0.05741 3.29751,-0.17283 5.11411,-0.256516 l 3.30285,-0.152171 0.31979,0.298885 c 0.89217,0.834225 2.61558,1.724177 4.07337,2.103433 1.75996,0.457868 5.03617,0.355605 5.03617,-0.157185 0,-0.216896 -1.73655,-6.380078 -1.98065,-7.029632 -0.16091,-0.42834 -0.19325,-0.454263 -0.48571,-0.390051 -0.45372,0.09966 -1.2979,-0.134746 -1.80309,-0.500718 l -0.43775,-0.317118 -0.70956,0.67354 c -0.39013,0.370443 -0.82942,0.701654 -0.82942,0.701654 0,0 0.69431,0.852993 1.08622,1.095205 0.20093,0.124236 0.36547,0.271111 0.36547,0.326457 0,0.175943 -0.66124,-0.233432 -1.21907,-0.754711 l -0.5389,-0.503577 -0.45615,0.202747 -0.45619,0.202747 0.21184,0.297753 c 0.56037,0.786981 1.9834,1.78868 2.98436,2.100777 0.714,0.222597 0.86961,0.410818 0.24621,0.297874 -1.15249,-0.208811 -2.71402,-1.108372 -3.56115,-2.051507 -0.27693,-0.308143 -0.48999,-0.526798 -0.48999,-0.526798 0,0 -0.2737,0.02506 -0.46889,0.03719 -0.43031,0.02628 -0.90271,0.0524 -0.90271,0.0524 0,0 0.1512,0.205254 0.24176,0.317159 0.2842,0.351684 1.57309,1.720393 2.22617,2.186416 1.18745,0.847348 2.37879,1.322269 4.10013,1.634507 0.54283,0.09844 0.51142,0.103658 -0.42619,0.07067 -2.39969,-0.0845 -4.52887,-1.295911 -6.61403,-3.76314 l -0.38124,-0.451065 -0.8973,-0.0044 c -0.49355,-0.0026 -1.11044,-0.04581 -1.37092,-0.09606 -0.24378,-0.04706 -0.44257,-0.08344 -0.44257,-0.08344 0,0 0.10027,0.0912 0.22195,0.182896 0.25025,0.18888 0.24298,0.191346 -0.69839,0.23606 -1.14209,0.05425 -1.43087,-0.02345 -1.43087,-0.385765 0,-0.14449 -0.0202,-0.255263 -0.0202,-0.255263 0,0 -2.36156,-0.238687 -5.05197,-0.386371 -5.84853,-0.32104 -6.58909,-0.377033 -6.4725,-0.489314 0.0489,-0.0473 1.16805,-0.139598 2.48653,-0.205132 3.49194,-0.173477 8.78786,-0.525694 9.58894,-0.637716 1.45306,-0.203192 3.47524,-0.52614 3.47524,-0.52614 0,0 -0.0121,-0.09549 -4e-5,-0.940616 0.0121,-1.037963 0.22316,-1.989798 0.64406,-2.927337 0.40436,-0.900969 0.48574,-0.758678 0.13907,0.242851 -0.3214,0.928354 -0.46852,2.066074 -0.43274,3.117273 0.0121,0.240224 0.0283,0.454416 0.0283,0.454416 0,0 0.35213,-0.03841 0.53672,-0.06468 0.48114,-0.06849 0.82821,-0.1001 0.82821,-0.1001 0,0 0.002,-0.227125 0.002,-0.422579 0,-0.495293 0.10794,-1.076729 0.19971,-1.076729 0.0364,0 0.0667,0.307657 0.0667,0.683659 0,0.376022 0.0202,0.774493 0.0202,0.774493 0,0 2.0318,-0.207437 3.00712,-0.399349 l 0.62721,-0.123386 0.0687,-0.550687 c 0.0364,-0.302888 0.1884,-0.76112 0.33434,-1.018319 0.28421,-0.50046 0.28745,-0.492043 -0.28461,-0.802526 -0.51954,-0.282108 -1.51072,-1.472743 -1.86446,-2.239664 -0.50988,-1.105349 -0.6857,-1.878099 -0.75657,-3.3255505 l -0.0639,-1.3012145 -0.59728,0.4197245 c -1.23246,0.8660667 -2.24862,1.9931895 -3.12041,3.4612305 -0.7883,1.327433 -1.37746,3.260934 -1.37912,4.525885 -5.7e-4,0.438265 -0.0517,0.857783 -0.1136,0.93226 -0.0772,0.09282 -0.44402,0.135434 -1.16708,0.135434 -1.38014,0 -1.35847,0.04261 -1.05154,-2.067841 0.26077,-1.793604 0.559,-2.77485 1.28242,-4.220397 1.63144,-3.2600166 4.8673,-5.8427371 8.32484,-6.6445474 3.91659,-0.9082737 7.88812,-0.00647 11.00117,2.4977446 3.32743,2.6767966 5.10186,6.6061688 4.80847,10.6481288 -0.17384,2.394568 -0.56833,3.478627 -2.37583,6.528806 -0.45822,0.77324 -1.85424,2.255992 -2.7819,2.954764 -1.30805,0.985301 -3.21622,1.857396 -4.91541,2.246504 -1.21349,0.277862 -3.2991,0.348935 -4.47487,0.152454 z m 7.831,-4.268871 c 1.80431,-1.289725 3.13953,-3.21219 3.84726,-5.539433 0.2644,-0.86886 0.29149,-1.116478 0.29917,-2.731043 0.004,-0.976553 -0.0162,-1.800906 -0.0477,-1.831894 -0.0324,-0.03113 -0.24662,-0.01536 -0.47944,0.03477 -0.23287,0.05021 -0.687,0.144409 -1.00929,0.209337 l -0.58596,0.11805 -0.008,1.356197 c -0.004,1.175297 -0.0449,1.469892 -0.29189,2.20855 -0.27774,0.830385 -0.89362,2.039225 -0.99,1.942853 -0.0283,-0.02628 0.0958,-0.352452 0.27167,-0.724496 0.4849,-1.025317 0.66949,-2.022779 0.62716,-3.388812 -0.0202,-0.642661 -0.097,-1.316618 -0.097,-1.316618 0,0 -0.3299,0.04961 -0.64904,0.08716 l -0.58002,0.06816 0.0457,0.9546 c 0.0283,0.557007 0.001,0.998829 -0.0607,1.060797 -0.0707,0.07055 -0.12168,-0.192599 -0.15281,-0.784325 -0.0243,-0.48979 -0.14474,-1.185513 -0.14474,-1.185513 0,0 -2.62309,0.378164 -3.48522,0.74931 -0.37073,0.159489 -0.39943,0.204364 -0.39943,0.617208 0,0.262742 -0.10835,0.65937 -0.2644,0.967755 l -0.2644,0.522545 0.83371,0.767168 c 0.60982,0.56111 0.94015,0.96966 1.2299,1.521054 0.52662,1.002144 0.91283,2.548802 0.99106,3.969061 l 0.0627,1.139975 0.3307,-0.167817 c 0.18193,-0.0923 0.61827,-0.373434 0.96987,-0.624772 z m -3.58374,-10.703083 0.78458,-0.744548 -0.35495,-0.331429 c -0.19527,-0.182291 -0.59612,-0.469868 -0.89112,-0.639059 -0.34526,-0.198017 -0.46036,-0.307133 -0.32302,-0.306284 0.34202,0.0022 1.06136,0.371575 1.50675,0.773976 l 0.41213,0.372343 0.46185,-0.235615 0.46185,-0.235615 -0.28825,-0.342669 c -0.60424,-0.718083 -1.85335,-1.477626 -2.9272,-1.779911 l -0.47944,-0.134949 0.38852,-0.0097 c 0.96045,-0.02345 2.37947,0.675052 3.35731,1.652915 l 0.46157,0.461559 0.61329,-0.119343 c 0.33717,-0.06562 0.87333,-0.121608 0.87333,-0.121608 0,0 -0.73139,-1.067823 -1.85351,-1.923961 -1.26892,-0.9681719 -2.45588,-1.4676772 -4.1309,-1.7098536 -0.72637,-0.1050322 -0.82724,-0.1412962 -0.57343,-0.2063045 0.73526,-0.1882737 2.61828,0.2452772 4.00234,0.9214451 0.72734,0.355323 1.09216,0.626587 1.81926,1.352667 0.50022,0.499514 1.00371,1.042613 1.11897,1.20686 0.0837,0.119424 0.24297,0.348773 0.24297,0.348773 0,0 0.48579,-0.01334 1.13866,0.03275 0.64459,0.04556 1.18948,0.0695 1.21086,0.05312 0.0202,-0.01617 -0.15848,-0.395346 -0.39943,-0.842206 -1.99492,-3.6984952 -6.09983,-5.9276477 -10.08907,-5.4788514 -0.9482,0.1066898 -2.14224,0.3863309 -2.22565,0.5212394 -0.10269,0.1664425 1.79169,5.951743 2.23656,6.829688 0.24904,0.491682 0.25672,0.49644 0.89807,0.563474 0.66011,0.06901 1.34711,0.348167 1.59663,0.648802 0.0764,0.09218 0.14514,0.167373 0.15282,0.16713 0.008,-2.55e-4 0.36668,-0.335513 0.79813,-0.745013 z"
         id="path30"
         sodipodi:nodetypes="csscsssscsscssssscsssssscccsssccccssscscsssssccscssscscssccssccscssscscccssccsssssssssssssccccccssccsccccsccsccssscssccsccccsssscccssccscscsssssscsccscsssscc" /><path
         style="fill:#0ef011;fill-opacity:1;stroke-width:4.04281"
         d="m 115.20213,9.332839 c -0.86253,1.351139 -1.78316,4.043937 -1.78482,5.308887 -5.6e-4,0.438265 1.26407,0.1643 1.26205,0.261125 -0.0243,1.253712 0.19405,0.956537 -1.60516,0.950226 -0.98192,-0.0034 -1.15341,0.203718 -0.81721,-1.950675 0.27935,-1.790783 0.60189,-2.983577 1.32535,-4.429124 1.63144,-3.2600166 4.89087,-5.8180315 8.3484,-6.6198418 3.91659,-0.9082737 7.88817,-0.05668 11.00117,2.4476057 3.80744,3.0629536 5.18098,7.0325231 4.86698,11.3584501 -0.17384,2.394573 -1.27898,3.938255 -1.4504,3.919237 -0.68202,-0.07568 -0.90712,-0.122254 -0.73991,-0.576246 0.80096,-2.17438 0.91545,-2.332147 0.97229,-4.671276 0.0695,-2.864775 -1.11775,-6.322675 -3.77465,-8.5801671 -3.22406,-2.7393631 -7.15941,-3.6981315 -10.50613,-2.8902246 -2.65568,0.6411047 -5.08355,2.3165419 -7.09796,5.4720317 z"
         id="path36"
         sodipodi:nodetypes="sssssssssssssss" /><path
         style="fill:#000000;fill-opacity:1;stroke:#ffffff;stroke-width:0.121284;stroke-linecap:square;stroke-dasharray:none;stroke-opacity:1"
         d="m 119.72668,6.8797832 c 0,0 -0.1698,-2.6025545 0.77319,-3.0018223 0.9429,-0.3992679 1.2371,1.4186622 1.5505,2.5468202"
         id="path37"
         sodipodi:nodetypes="czc" /><path
         style="fill:#000000;fill-opacity:1;stroke:#ffffff;stroke-width:0.121284;stroke-linecap:square;stroke-dasharray:none;stroke-opacity:1"
         d="m 133.86051,11.223515 c 1.39812,0.09715 2.72436,0.256071 3.04371,0.998691 0.31938,0.742628 -1.44927,1.186536 -2.57568,1.506254"
         id="path39"
         sodipodi:nodetypes="czc" /><path
         style="fill:#000000;fill-opacity:1;stroke:#ffffff;stroke-width:0.121284;stroke-linecap:square;stroke-dasharray:none;stroke-opacity:1"
         d="m 129.75022,23.577972 c -0.0364,1.401072 -0.13382,2.733101 -0.86144,3.085367 -0.72758,0.352291 -1.25024,-1.3947 -1.62003,-2.505664"
         id="path40"
         sodipodi:nodetypes="czc" /><circle
         style="fill:#0ef011;fill-opacity:1;stroke:none;stroke-width:0.0830506;stroke-linecap:square;stroke-dasharray:none;stroke-opacity:1"
         id="path42"
         cx="124.77352"
         cy="15.299973"
         r="1.3433672" /></g></g></svg>
